<?xml version="1.0" encoding="utf-8"?>
<!-- Generator: Adobe Illustrator 16.0.0, SVG Export Plug-In . SVG Version: 6.00 Build 0)  -->
<!DOCTYPE svg PUBLIC "-//W3C//DTD SVG 1.1//EN" "http://www.w3.org/Graphics/SVG/1.1/DTD/svg11.dtd">
<svg version="1.1" id="Layer_1" xmlns="http://www.w3.org/2000/svg" xmlns:xlink="http://www.w3.org/1999/xlink" x="0px" y="0px"
	 width="64px" height="64px" viewBox="0 0 64 64" enable-background="new 0 0 64 64" xml:space="preserve">
<path fill="#231F20" d="M59.177,32.343c0.19-14.984-11.848-27.331-26.832-27.521C17.36,4.632,5.015,16.667,4.824,31.653
	s11.845,27.333,26.83,27.524C46.639,59.367,58.986,47.329,59.177,32.343z M6.699,31.677C6.876,17.726,18.37,6.52,32.321,6.697
	c13.952,0.177,25.158,11.672,24.981,25.623C57.124,46.271,45.629,57.477,31.678,57.3C17.727,57.122,6.521,45.629,6.699,31.677z"/>
<path fill="#231F20" d="M30.991,27.617l-0.135,10.634l0.311,0.082c0.119,0.029,0.244,0.007,0.346-0.072l0.037-0.032
	c0.021-0.021,0.041-0.045,0.057-0.072l20.138-4.887l0.003-0.26l-20.083-5.355c-0.008-0.011-0.018-0.021-0.028-0.03
	c-0.101-0.081-0.227-0.107-0.349-0.079L30.991,27.617z"/>
</svg>
